<svg
	title="Email"
	width="24" height="24"
	viewBox="0 0 24 24"
	xmlns="http://www.w3.org/2000/svg"
>
	<g clip-path="url(#clip0_171_757)">
		<path d="M22.8201 20.007C22.8182 20.2696 22.7132 20.521 22.5276 20.7068C22.3419 20.8926 22.0907 20.9979 21.8281 21H3.81207C3.54888 20.9997 3.29657 20.895 3.11056 20.7088C2.92455 20.5226 2.82007 20.2702 2.82007 20.007V19H20.8201V7.3L12.8201 14.5L2.82007 5.5V4C2.82007 3.73478 2.92543 3.48043 3.11296 3.29289C3.3005 3.10536 3.55485 3 3.82007 3H21.8201C22.0853 3 22.3396 3.10536 22.5272 3.29289C22.7147 3.48043 22.8201 3.73478 22.8201 4V20.007ZM5.25407 5L12.8201 11.81L20.3861 5H5.25407ZM0.820068 15H8.82007V17H0.820068V15ZM0.820068 10H5.82007V12H0.820068V10Z" fill="white"/>
	</g>

	<defs>
		<clipPath id="clip0_171_757">
			<rect width="24" height="24" fill="white" transform="translate(0.820068)"/>
		</clipPath>
	</defs>
</svg>
