<svg
	title="Five stars"
	width="116" height="20"
	viewBox="0 0 116 20"
	xmlns="http://www.w3.org/2000/svg"
>
	<path d="M10 15.2167L4.1225 18.5067L5.435 11.9L0.489167 7.32667L7.17833 6.53333L10 0.416667L12.8217 6.53333L19.5108 7.32667L14.565 11.9L15.8775 18.5067L10 15.2167Z" fill="#0FA34D"/>
	<path d="M34 15.2167L28.1225 18.5067L29.435 11.9L24.4892 7.32667L31.1783 6.53333L34 0.416667L36.8217 6.53333L43.5108 7.32667L38.565 11.9L39.8775 18.5067L34 15.2167Z" fill="#0FA34D"/>
	<path d="M58 15.2167L52.1225 18.5067L53.435 11.9L48.4892 7.32667L55.1783 6.53333L58 0.416667L60.8217 6.53333L67.5108 7.32667L62.565 11.9L63.8775 18.5067L58 15.2167Z" fill="#0FA34D"/>
	<path d="M82 15.2167L76.1225 18.5067L77.435 11.9L72.4892 7.32667L79.1783 6.53333L82 0.416667L84.8217 6.53333L91.5108 7.32667L86.565 11.9L87.8775 18.5067L82 15.2167Z" fill="#0FA34D"/>
	<path d="M106 15.2167L100.122 18.5067L101.435 11.9L96.4892 7.32667L103.178 6.53333L106 0.416667L108.822 6.53333L115.511 7.32667L110.565 11.9L111.878 18.5067L106 15.2167Z" fill="#0FA34D"/>
</svg>
