<svg
	title="Phone"
	width="24" height="24"
	viewBox="0 0 24 24"
	xmlns="http://www.w3.org/2000/svg"
>
	<g clip-path="url(#clip0_171_752)">
		<path d="M9.84598 10.682C10.7843 12.3305 12.1495 13.6957 13.798 14.634L14.682 13.396C14.8241 13.1969 15.0343 13.0569 15.2728 13.0023C15.5112 12.9478 15.7614 12.9825 15.976 13.1C17.3903 13.8729 18.9522 14.3378 20.559 14.464C20.8098 14.4839 21.0438 14.5975 21.2145 14.7823C21.3852 14.9671 21.48 15.2094 21.48 15.461V19.923C21.48 20.1706 21.3882 20.4094 21.2223 20.5932C21.0565 20.777 20.8283 20.8927 20.582 20.918C20.052 20.973 19.518 21 18.98 21C10.42 21 3.47998 14.06 3.47998 5.5C3.47998 4.962 3.50698 4.428 3.56198 3.898C3.58724 3.6517 3.70296 3.42352 3.88677 3.25763C4.07058 3.09175 4.30939 2.99995 4.55698 3H9.01898C9.27054 2.99997 9.51288 3.09475 9.69766 3.26545C9.88245 3.43615 9.99611 3.67022 10.016 3.921C10.1422 5.52779 10.6071 7.08968 11.38 8.504C11.4974 8.71856 11.5322 8.96874 11.4776 9.2072C11.4231 9.44565 11.283 9.65584 11.084 9.798L9.84598 10.682ZM7.32398 10.025L9.22398 8.668C8.68476 7.50409 8.31533 6.26884 8.12698 5H5.48998C5.48398 5.166 5.48098 5.333 5.48098 5.5C5.47998 12.956 11.524 19 18.98 19C19.147 19 19.314 18.997 19.48 18.99V16.353C18.2111 16.1646 16.9759 15.7952 15.812 15.256L14.455 17.156C13.9086 16.9437 13.378 16.6931 12.867 16.406L12.809 16.373C10.8476 15.2567 9.22326 13.6324 8.10698 11.671L8.07398 11.613C7.78689 11.102 7.53626 10.5713 7.32398 10.025Z" fill="white"/>
	</g>

	<defs>
		<clipPath id="clip0_171_752">
			<rect width="24" height="24" fill="white" transform="translate(0.47998)"/>
		</clipPath>
	</defs>
</svg>
