<svg
	title="Shamrock"
	width="48" height="50"
	viewBox="0 0 48 50"
	xmlns="http://www.w3.org/2000/svg"
>
	<path d="M18.9161 49.1075C19.0644 48.6132 19.9048 46.2897 20.7452 43.8673C22.426 39.0721 23.563 31.8544 23.0192 28.9377L22.6732 27.1086L19.9542 30.9646C18.4712 33.1397 16.6915 35.6115 15.9994 36.5014C12.2423 41.3461 5.81576 42.1865 3.69005 38.0833C2.80022 36.3531 2.75079 34.9689 3.54175 32.7937C4.08553 31.2612 4.0361 31.1129 2.05869 29.2837C-0.363629 27.0097 -0.610805 25.3289 1.11943 22.7088C3.73949 18.7539 7.59543 18.4573 16.2466 21.4729C19.1138 22.4616 21.5856 23.2031 21.8328 23.1537C22.0305 23.0548 20.7452 20.7808 18.9655 18.1112C17.1364 15.3923 15.2579 12.2778 14.7635 11.1902C13.0333 7.38364 13.7748 2.6378 16.3949 0.80867C18.1251 -0.377791 20.8935 -0.180048 22.6237 1.25359C24.4528 2.78611 24.7494 2.78611 26.183 1.25359C28.3582 -1.06989 32.0164 -0.03174 33.4006 3.28046C34.9825 7.08703 34.0927 10.2509 29.1492 17.5674C27.2212 20.4842 25.6887 22.9065 25.7876 23.0548C25.8864 23.1537 28.6548 22.3627 31.8681 21.2751C40.1732 18.5562 43.1887 18.7539 46.1054 22.2144C47.7368 24.1424 47.9345 27.3063 46.5998 28.4433C46.1054 28.7894 45.1661 29.5804 44.4741 30.0747C43.3865 30.9646 43.337 31.1623 43.8808 32.3488C45.4628 35.8093 43.9797 39.6158 40.7664 40.5057C36.8116 41.5933 33.1534 39.1215 28.6548 32.4476L25.4415 27.6524L25.0955 33.4858C24.7494 39.0721 23.4641 45.4987 22.1294 48.366C21.3384 49.9974 18.4217 50.6895 18.9161 49.1075Z" fill="white"/>
</svg>
