<svg
	title="Shamrock"
	width="72" height="75"
	viewBox="0 0 72 76"
	xmlns="http://www.w3.org/2000/svg"
>
	<path d="M28.3741 74.1613C28.5966 73.4198 29.8572 69.9345 31.1178 66.301C33.639 59.1081 35.3445 48.2816 34.5288 43.9065L34.0097 41.1628L29.9313 46.9468C27.7067 50.2096 25.0372 53.9173 23.9991 55.2521C18.3635 62.5192 8.72365 63.7798 5.53508 57.625C4.20033 55.0296 4.12618 52.9533 5.31262 49.6905C6.1283 47.3918 6.05415 47.1693 3.08804 44.4256C-0.545444 41.0145 -0.916207 38.4933 1.67914 34.5632C5.60923 28.6308 11.3931 28.1859 24.3699 32.7093C28.6707 34.1924 32.3784 35.3047 32.7491 35.2305C33.0457 35.0822 31.1178 31.6712 28.4483 27.6668C25.7046 23.5884 22.8868 18.9167 22.1453 17.2853C19.5499 11.5755 20.6622 4.4567 24.5923 1.71301C27.1877 -0.0666869 31.3402 0.229928 33.9356 2.38039C36.6792 4.67916 37.1241 4.67916 39.2746 2.38039C42.5373 -1.10484 48.0246 0.45239 50.1009 5.4207C52.4738 11.1305 51.139 15.8764 43.7237 26.8512C40.8318 31.2262 38.533 34.8598 38.6814 35.0822C38.8297 35.2305 42.9822 34.0441 47.8021 32.4127C60.2598 28.3342 64.7831 28.6308 69.1581 33.8216C71.6052 36.7136 71.9018 41.4595 69.8997 43.165C69.1581 43.6841 67.7492 44.8705 66.7111 45.6121C65.0797 46.9468 65.0056 47.2435 65.8213 49.0232C68.1941 54.2139 65.9696 59.9238 61.1496 61.2585C55.2174 62.8899 49.7301 59.1822 42.9822 49.1715L38.1623 41.9785L37.6432 50.7287C37.1241 59.1081 35.1962 68.7481 33.194 73.049C32.0076 75.4961 27.6326 76.5342 28.3741 74.1613Z" fill="white"/>
</svg>
