<svg width="253" height="67" viewBox="0 0 253 67" fill="none" xmlns="http://www.w3.org/2000/svg">
<path d="M0.475838 25.5V25.14L1.23184 24.852C1.99984 24.54 2.38384 23.928 2.38384 23.016V4.224C2.38384 3.264 1.99984 2.652 1.23184 2.388L0.475838 2.1V1.74H9.97984C12.5238 1.74 14.7078 2.22 16.5318 3.18C18.3798 4.116 19.7958 5.472 20.7798 7.248C21.7878 9 22.2918 11.112 22.2918 13.584C22.2918 16.104 21.7518 18.252 20.6718 20.028C19.5918 21.804 18.0798 23.16 16.1358 24.096C14.2158 25.032 11.9478 25.5 9.33184 25.5H0.475838ZM7.78384 24.78H9.33184C11.0598 24.78 12.4518 24.444 13.5078 23.772C14.5638 23.076 15.3318 21.924 15.8118 20.316C16.3158 18.684 16.5678 16.452 16.5678 13.62C16.5678 10.788 16.3158 8.568 15.8118 6.96C15.3318 5.328 14.5758 4.176 13.5438 3.504C12.5118 2.808 11.1558 2.46 9.47584 2.46H7.78384V24.78ZM32.7836 7.644C34.3436 7.644 35.6756 7.968 36.7796 8.616C37.8836 9.24 38.7236 10.104 39.2996 11.208C39.8996 12.288 40.1996 13.524 40.1996 14.916C40.1996 15.18 40.1876 15.456 40.1636 15.744C40.1396 16.008 40.0916 16.248 40.0196 16.464H29.2916C29.3156 19.056 29.7716 20.928 30.6596 22.08C31.5716 23.208 32.9156 23.772 34.6916 23.772C35.8916 23.772 36.8636 23.58 37.6076 23.196C38.3516 22.812 39.0476 22.248 39.6956 21.504L40.0556 21.828C39.3116 23.148 38.3156 24.18 37.0676 24.924C35.8436 25.668 34.3676 26.04 32.6396 26.04C30.9356 26.04 29.4236 25.68 28.1036 24.96C26.7836 24.216 25.7516 23.16 25.0076 21.792C24.2636 20.424 23.8916 18.792 23.8916 16.896C23.8916 14.928 24.3236 13.26 25.1876 11.892C26.0516 10.5 27.1556 9.444 28.4996 8.724C29.8676 8.004 31.2956 7.644 32.7836 7.644ZM32.6756 8.364C31.9796 8.364 31.3796 8.58 30.8756 9.012C30.3956 9.42 30.0116 10.164 29.7236 11.244C29.4596 12.3 29.3156 13.8 29.2916 15.744H35.4476C35.6876 13.128 35.5916 11.244 35.1596 10.092C34.7276 8.94 33.8996 8.364 32.6756 8.364ZM41.9937 25.5V25.14L42.5337 24.996C43.0137 24.852 43.3377 24.636 43.5057 24.348C43.6977 24.06 43.7937 23.688 43.7937 23.232V11.964C43.7937 11.436 43.6977 11.052 43.5057 10.812C43.3377 10.548 43.0137 10.368 42.5337 10.272L41.9937 10.128V9.768L48.1857 7.68L48.5457 8.04L48.8697 11.136V11.424C49.2057 10.752 49.6377 10.14 50.1657 9.588C50.7177 9.012 51.3177 8.544 51.9657 8.184C52.6377 7.824 53.2977 7.644 53.9457 7.644C54.8577 7.644 55.5537 7.896 56.0337 8.4C56.5137 8.904 56.7537 9.54 56.7537 10.308C56.7537 11.124 56.5137 11.76 56.0337 12.216C55.5777 12.648 55.0257 12.864 54.3777 12.864C53.3697 12.864 52.4817 12.36 51.7137 11.352L51.6417 11.28C51.4017 10.944 51.1257 10.764 50.8137 10.74C50.5017 10.692 50.2137 10.836 49.9497 11.172C49.7097 11.388 49.5057 11.652 49.3377 11.964C49.1937 12.252 49.0497 12.588 48.9057 12.972V23.016C48.9057 23.976 49.3257 24.576 50.1657 24.816L51.3177 25.14V25.5H41.9937ZM57.8843 25.5V25.14L58.3883 24.996C58.8443 24.876 59.1563 24.672 59.3243 24.384C59.5163 24.096 59.6243 23.712 59.6483 23.232V11.964C59.6483 11.436 59.5643 11.052 59.3963 10.812C59.2283 10.548 58.9043 10.368 58.4243 10.272L57.8843 10.128V9.768L64.0403 7.68L64.4003 8.04L64.6883 10.488C65.4803 9.696 66.3803 9.024 67.3883 8.472C68.4203 7.92 69.4883 7.644 70.5923 7.644C71.7443 7.644 72.6683 7.884 73.3643 8.364C74.0603 8.82 74.5883 9.54 74.9483 10.524C75.8843 9.636 76.8923 8.94 77.9723 8.436C79.0763 7.908 80.1443 7.644 81.1763 7.644C82.8803 7.644 84.1283 8.052 84.9203 8.868C85.7363 9.684 86.1443 10.968 86.1443 12.72V23.268C86.1443 24.204 86.5763 24.792 87.4403 25.032L87.8363 25.14V25.5H79.5203V25.14L79.8803 25.032C80.3363 24.888 80.6483 24.672 80.8163 24.384C81.0083 24.096 81.1043 23.712 81.1043 23.232V12.216C81.1043 11.208 80.9243 10.524 80.5643 10.164C80.2043 9.78 79.6283 9.588 78.8363 9.588C78.2123 9.588 77.6003 9.732 77.0003 10.02C76.4243 10.284 75.8123 10.692 75.1643 11.244C75.2843 11.628 75.3563 12.048 75.3803 12.504C75.4283 12.96 75.4523 13.44 75.4523 13.944V23.268C75.4763 24.204 75.9083 24.792 76.7483 25.032L77.0723 25.14V25.5H68.7203V25.14L69.2243 24.996C69.6803 24.852 69.9923 24.648 70.1603 24.384C70.3523 24.096 70.4483 23.712 70.4483 23.232V12.252C70.4483 11.292 70.2683 10.608 69.9083 10.2C69.5723 9.792 68.9843 9.588 68.1443 9.588C67.5923 9.588 67.0403 9.732 66.4883 10.02C65.9363 10.284 65.3603 10.68 64.7603 11.208V23.268C64.7603 24.204 65.1803 24.792 66.0203 25.032L66.3443 25.14V25.5H57.8843ZM98.3517 26.04C96.5277 26.04 94.9437 25.668 93.5997 24.924C92.2557 24.156 91.2117 23.076 90.4677 21.684C89.7477 20.292 89.3877 18.66 89.3877 16.788C89.3877 14.916 89.7717 13.296 90.5397 11.928C91.3317 10.56 92.3997 9.504 93.7437 8.76C95.1117 8.016 96.6477 7.644 98.3517 7.644C100.056 7.644 101.58 8.016 102.924 8.76C104.268 9.48 105.324 10.524 106.092 11.892C106.884 13.26 107.28 14.892 107.28 16.788C107.28 18.684 106.908 20.328 106.164 21.72C105.444 23.088 104.412 24.156 103.068 24.924C101.748 25.668 100.176 26.04 98.3517 26.04ZM98.3517 25.32C99.1917 25.32 99.8637 25.08 100.368 24.6C100.872 24.12 101.232 23.268 101.448 22.044C101.688 20.82 101.808 19.092 101.808 16.86C101.808 14.604 101.688 12.864 101.448 11.64C101.232 10.416 100.872 9.564 100.368 9.084C99.8637 8.604 99.1917 8.364 98.3517 8.364C97.5117 8.364 96.8277 8.604 96.2997 9.084C95.7957 9.564 95.4237 10.416 95.1837 11.64C94.9677 12.864 94.8597 14.604 94.8597 16.86C94.8597 19.092 94.9677 20.82 95.1837 22.044C95.4237 23.268 95.7957 24.12 96.2997 24.6C96.8277 25.08 97.5117 25.32 98.3517 25.32ZM115.56 26.04C114.024 26.04 112.824 25.656 111.96 24.888C111.12 24.12 110.7 22.896 110.7 21.216V8.904H108.216V8.544L109.08 8.4C109.824 8.232 110.46 7.992 110.988 7.68C111.54 7.368 112.08 6.948 112.608 6.42L115.56 3.144H115.92L115.812 8.184H119.844V8.904H115.776V21.864C115.776 22.704 115.956 23.34 116.316 23.772C116.7 24.204 117.18 24.42 117.756 24.42C118.26 24.42 118.704 24.3 119.088 24.06C119.472 23.796 119.856 23.448 120.24 23.016L120.6 23.376C120.12 24.192 119.46 24.84 118.62 25.32C117.78 25.8 116.76 26.04 115.56 26.04ZM136.465 25.608L130.093 4.188C129.925 3.636 129.745 3.24 129.553 3C129.361 2.736 129.025 2.496 128.545 2.28L128.113 2.1V1.74H137.653V2.1L136.897 2.388C136.345 2.604 135.973 2.868 135.781 3.18C135.589 3.492 135.577 3.924 135.745 4.476L139.669 19.452L143.917 6.888L143.089 4.332C142.921 3.828 142.765 3.444 142.621 3.18C142.477 2.916 142.237 2.7 141.901 2.532L141.109 2.1V1.74H150.145V2.1L149.029 2.532C148.549 2.7 148.273 2.952 148.201 3.288C148.153 3.6 148.213 4.008 148.381 4.512L152.953 19.812L157.273 4.8C157.441 4.224 157.501 3.72 157.453 3.288C157.405 2.856 157.105 2.544 156.553 2.352L155.797 2.1V1.74H160.801V2.1L159.865 2.46C159.385 2.628 159.049 2.892 158.857 3.252C158.665 3.612 158.497 4.056 158.353 4.584L152.377 25.608H149.893L144.493 8.688L138.949 25.608H136.465ZM165.036 5.772C164.22 5.772 163.524 5.52 162.948 5.016C162.396 4.488 162.12 3.828 162.12 3.036C162.12 2.22 162.396 1.56 162.948 1.056C163.524 0.551999 164.22 0.299998 165.036 0.299998C165.852 0.299998 166.536 0.551999 167.088 1.056C167.64 1.56 167.916 2.22 167.916 3.036C167.916 3.828 167.64 4.488 167.088 5.016C166.536 5.52 165.852 5.772 165.036 5.772ZM160.788 25.5V25.14L161.292 24.996C161.772 24.852 162.096 24.636 162.264 24.348C162.456 24.06 162.552 23.676 162.552 23.196V11.928C162.552 11.424 162.456 11.052 162.264 10.812C162.096 10.548 161.772 10.368 161.292 10.272L160.788 10.164V9.804L167.376 7.68L167.736 8.04L167.628 13.152V23.232C167.628 23.712 167.712 24.096 167.88 24.384C168.072 24.672 168.396 24.888 168.852 25.032L169.212 25.14V25.5H160.788ZM170.806 25.5V25.14L171.31 24.996C172.15 24.756 172.57 24.168 172.57 23.232V11.964C172.57 11.436 172.486 11.052 172.318 10.812C172.15 10.548 171.826 10.368 171.346 10.272L170.806 10.128V9.768L176.962 7.68L177.322 8.04L177.61 10.2C178.45 9.456 179.398 8.844 180.454 8.364C181.51 7.884 182.554 7.644 183.586 7.644C185.17 7.644 186.382 8.076 187.222 8.94C188.086 9.804 188.518 11.124 188.518 12.9V23.268C188.518 24.204 188.974 24.792 189.886 25.032L190.21 25.14V25.5H181.714V25.14L182.182 24.996C183.022 24.732 183.442 24.144 183.442 23.232V11.748C183.442 10.212 182.674 9.444 181.138 9.444C180.082 9.444 178.93 9.972 177.682 11.028V23.268C177.682 24.204 178.102 24.792 178.942 25.032L179.266 25.14V25.5H170.806ZM198.283 26.04C196.747 26.04 195.547 25.656 194.683 24.888C193.843 24.12 193.423 22.896 193.423 21.216V8.904H190.939V8.544L191.803 8.4C192.547 8.232 193.183 7.992 193.711 7.68C194.263 7.368 194.803 6.948 195.331 6.42L198.283 3.144H198.643L198.535 8.184H202.567V8.904H198.499V21.864C198.499 22.704 198.679 23.34 199.039 23.772C199.423 24.204 199.903 24.42 200.479 24.42C200.983 24.42 201.427 24.3 201.811 24.06C202.195 23.796 202.579 23.448 202.963 23.016L203.323 23.376C202.843 24.192 202.183 24.84 201.343 25.32C200.503 25.8 199.483 26.04 198.283 26.04ZM213.381 7.644C214.941 7.644 216.273 7.968 217.377 8.616C218.481 9.24 219.321 10.104 219.897 11.208C220.497 12.288 220.797 13.524 220.797 14.916C220.797 15.18 220.785 15.456 220.761 15.744C220.737 16.008 220.689 16.248 220.617 16.464H209.889C209.913 19.056 210.369 20.928 211.257 22.08C212.169 23.208 213.513 23.772 215.289 23.772C216.489 23.772 217.461 23.58 218.205 23.196C218.949 22.812 219.645 22.248 220.293 21.504L220.653 21.828C219.909 23.148 218.913 24.18 217.665 24.924C216.441 25.668 214.965 26.04 213.237 26.04C211.533 26.04 210.021 25.68 208.701 24.96C207.381 24.216 206.349 23.16 205.605 21.792C204.861 20.424 204.489 18.792 204.489 16.896C204.489 14.928 204.921 13.26 205.785 11.892C206.649 10.5 207.753 9.444 209.097 8.724C210.465 8.004 211.893 7.644 213.381 7.644ZM213.273 8.364C212.577 8.364 211.977 8.58 211.473 9.012C210.993 9.42 210.609 10.164 210.321 11.244C210.057 12.3 209.913 13.8 209.889 15.744H216.045C216.285 13.128 216.189 11.244 215.757 10.092C215.325 8.94 214.497 8.364 213.273 8.364ZM222.591 25.5V25.14L223.131 24.996C223.611 24.852 223.935 24.636 224.103 24.348C224.295 24.06 224.391 23.688 224.391 23.232V11.964C224.391 11.436 224.295 11.052 224.103 10.812C223.935 10.548 223.611 10.368 223.131 10.272L222.591 10.128V9.768L228.783 7.68L229.143 8.04L229.467 11.136V11.424C229.803 10.752 230.235 10.14 230.763 9.588C231.315 9.012 231.915 8.544 232.563 8.184C233.235 7.824 233.895 7.644 234.543 7.644C235.455 7.644 236.151 7.896 236.631 8.4C237.111 8.904 237.351 9.54 237.351 10.308C237.351 11.124 237.111 11.76 236.631 12.216C236.175 12.648 235.623 12.864 234.975 12.864C233.967 12.864 233.079 12.36 232.311 11.352L232.239 11.28C231.999 10.944 231.723 10.764 231.411 10.74C231.099 10.692 230.811 10.836 230.547 11.172C230.307 11.388 230.103 11.652 229.935 11.964C229.791 12.252 229.647 12.588 229.503 12.972V23.016C229.503 23.976 229.923 24.576 230.763 24.816L231.915 25.14V25.5H222.591ZM244.358 26.04C243.182 26.04 242.126 25.896 241.19 25.608C240.254 25.344 239.39 25.008 238.598 24.6L238.634 20.316H238.994L240.218 22.476C240.746 23.436 241.322 24.156 241.946 24.636C242.594 25.092 243.41 25.32 244.394 25.32C245.546 25.32 246.47 25.068 247.166 24.564C247.886 24.036 248.246 23.34 248.246 22.476C248.246 21.684 247.994 21.036 247.49 20.532C246.986 20.028 246.05 19.572 244.682 19.164L243.17 18.696C241.706 18.264 240.554 17.592 239.714 16.68C238.874 15.768 238.454 14.652 238.454 13.332C238.454 11.748 239.078 10.404 240.326 9.3C241.574 8.196 243.362 7.644 245.69 7.644C246.626 7.644 247.502 7.752 248.318 7.968C249.158 8.16 249.962 8.46 250.73 8.868L250.514 12.756H250.154L248.894 10.524C248.438 9.732 247.982 9.18 247.526 8.868C247.094 8.532 246.434 8.364 245.546 8.364C244.73 8.364 243.962 8.592 243.242 9.048C242.522 9.504 242.162 10.152 242.162 10.992C242.162 11.808 242.462 12.456 243.062 12.936C243.686 13.416 244.598 13.86 245.798 14.268L247.418 14.736C249.146 15.264 250.382 15.996 251.126 16.932C251.87 17.844 252.242 18.948 252.242 20.244C252.242 21.996 251.546 23.4 250.154 24.456C248.786 25.512 246.854 26.04 244.358 26.04ZM0.943838 57.5V57.14L2.13184 56.78C2.56384 56.66 2.87584 56.432 3.06784 56.096C3.25984 55.736 3.35584 55.316 3.35584 54.836V37.52C3.09184 36.944 2.87584 36.512 2.70784 36.224C2.56384 35.936 2.39584 35.696 2.20384 35.504C2.01184 35.288 1.74784 35.024 1.41184 34.712L0.799838 34.1V33.74H7.17184L19.1238 50.048V36.476C19.1238 35.996 19.0398 35.564 18.8718 35.18C18.7278 34.796 18.4158 34.544 17.9358 34.424L16.7478 34.1V33.74H21.8958V34.1L20.9238 34.424C20.4918 34.568 20.2278 34.82 20.1318 35.18C20.0358 35.54 19.9878 35.96 19.9878 36.44V57.608H17.9718L4.21984 38.708V54.836C4.21984 55.316 4.29184 55.724 4.43584 56.06C4.57984 56.396 4.87984 56.636 5.33584 56.78L6.41584 57.14V57.5H0.943838ZM31.8712 58.04C30.0472 58.04 28.4632 57.668 27.1192 56.924C25.7752 56.156 24.7312 55.076 23.9872 53.684C23.2672 52.292 22.9072 50.66 22.9072 48.788C22.9072 46.916 23.2912 45.296 24.0592 43.928C24.8512 42.56 25.9192 41.504 27.2632 40.76C28.6312 40.016 30.1672 39.644 31.8712 39.644C33.5752 39.644 35.0992 40.016 36.4432 40.76C37.7872 41.48 38.8432 42.524 39.6112 43.892C40.4032 45.26 40.7992 46.892 40.7992 48.788C40.7992 50.684 40.4272 52.328 39.6832 53.72C38.9632 55.088 37.9312 56.156 36.5872 56.924C35.2672 57.668 33.6952 58.04 31.8712 58.04ZM31.8712 57.32C32.7112 57.32 33.3832 57.08 33.8872 56.6C34.3912 56.12 34.7512 55.268 34.9672 54.044C35.2072 52.82 35.3272 51.092 35.3272 48.86C35.3272 46.604 35.2072 44.864 34.9672 43.64C34.7512 42.416 34.3912 41.564 33.8872 41.084C33.3832 40.604 32.7112 40.364 31.8712 40.364C31.0312 40.364 30.3472 40.604 29.8192 41.084C29.3152 41.564 28.9432 42.416 28.7032 43.64C28.4872 44.864 28.3792 46.604 28.3792 48.86C28.3792 51.092 28.4872 52.82 28.7032 54.044C28.9432 55.268 29.3152 56.12 29.8192 56.6C30.3472 57.08 31.0312 57.32 31.8712 57.32ZM49.0798 58.04C47.5438 58.04 46.3438 57.656 45.4798 56.888C44.6398 56.12 44.2198 54.896 44.2198 53.216V40.904H41.7358V40.544L42.5998 40.4C43.3438 40.232 43.9798 39.992 44.5078 39.68C45.0598 39.368 45.5998 38.948 46.1278 38.42L49.0798 35.144H49.4398L49.3318 40.184H53.3638V40.904H49.2958V53.864C49.2958 54.704 49.4758 55.34 49.8358 55.772C50.2198 56.204 50.6998 56.42 51.2758 56.42C51.7798 56.42 52.2238 56.3 52.6078 56.06C52.9918 55.796 53.3758 55.448 53.7598 55.016L54.1198 55.376C53.6398 56.192 52.9798 56.84 52.1398 57.32C51.2998 57.8 50.2798 58.04 49.0798 58.04ZM60.5036 58.04C59.1116 58.04 57.9356 57.644 56.9756 56.852C56.0396 56.06 55.5716 54.92 55.5716 53.432C55.5716 52.304 56.1476 51.272 57.2996 50.336C58.4516 49.376 60.2636 48.656 62.7356 48.176C63.1196 48.104 63.5516 48.032 64.0316 47.96C64.5116 47.864 65.0156 47.768 65.5436 47.672V44.828C65.5436 43.196 65.3396 42.056 64.9316 41.408C64.5476 40.736 63.9356 40.4 63.0956 40.4C62.5196 40.4 62.0636 40.592 61.7276 40.976C61.3916 41.336 61.1756 41.972 61.0796 42.884L61.0076 43.28C60.9596 44.312 60.7076 45.068 60.2516 45.548C59.7956 46.028 59.2316 46.268 58.5596 46.268C57.9356 46.268 57.4196 46.076 57.0116 45.692C56.6036 45.308 56.3996 44.792 56.3996 44.144C56.3996 43.16 56.7356 42.332 57.4076 41.66C58.1036 40.988 59.0156 40.484 60.1436 40.148C61.2716 39.812 62.4956 39.644 63.8156 39.644C65.9516 39.644 67.5956 40.172 68.7476 41.228C69.9236 42.26 70.5116 43.952 70.5116 46.304V54.26C70.5116 55.34 71.0156 55.88 72.0236 55.88H72.8156L73.1396 56.168C72.6836 56.744 72.1796 57.188 71.6276 57.5C71.0996 57.812 70.3436 57.968 69.3596 57.968C68.3036 57.968 67.4636 57.728 66.8396 57.248C66.2396 56.744 65.8436 56.084 65.6516 55.268C64.9316 56.036 64.1876 56.696 63.4196 57.248C62.6756 57.776 61.7036 58.04 60.5036 58.04ZM62.6996 55.844C63.1796 55.844 63.6236 55.736 64.0316 55.52C64.4636 55.28 64.9676 54.92 65.5436 54.44V48.392C65.3036 48.44 65.0636 48.488 64.8236 48.536C64.5836 48.584 64.3076 48.632 63.9956 48.68C62.8916 48.968 62.0036 49.46 61.3316 50.156C60.6836 50.828 60.3596 51.74 60.3596 52.892C60.3596 53.876 60.5876 54.62 61.0436 55.124C61.4996 55.604 62.0516 55.844 62.6996 55.844ZM73.8101 57.5V57.14L74.3501 56.996C74.8301 56.852 75.1541 56.636 75.3221 56.348C75.5141 56.06 75.6101 55.688 75.6101 55.232V43.964C75.6101 43.436 75.5141 43.052 75.3221 42.812C75.1541 42.548 74.8301 42.368 74.3501 42.272L73.8101 42.128V41.768L80.0021 39.68L80.3621 40.04L80.6861 43.136V43.424C81.0221 42.752 81.4541 42.14 81.9821 41.588C82.5341 41.012 83.1341 40.544 83.7821 40.184C84.4541 39.824 85.1141 39.644 85.7621 39.644C86.6741 39.644 87.3701 39.896 87.8501 40.4C88.3301 40.904 88.5701 41.54 88.5701 42.308C88.5701 43.124 88.3301 43.76 87.8501 44.216C87.3941 44.648 86.8421 44.864 86.1941 44.864C85.1861 44.864 84.2981 44.36 83.5301 43.352L83.4581 43.28C83.2181 42.944 82.9421 42.764 82.6301 42.74C82.3181 42.692 82.0301 42.836 81.7661 43.172C81.5261 43.388 81.3221 43.652 81.1541 43.964C81.0101 44.252 80.8661 44.588 80.7221 44.972V55.016C80.7221 55.976 81.1421 56.576 81.9821 56.816L83.1341 57.14V57.5H73.8101ZM93.5752 66.14C92.6152 66.14 91.8472 65.9 91.2712 65.42C90.7192 64.94 90.4432 64.328 90.4432 63.584C90.4432 62.912 90.6832 62.372 91.1632 61.964C91.6432 61.556 92.1832 61.352 92.7832 61.352C93.3832 61.352 93.8872 61.472 94.2952 61.712C94.7032 61.976 95.0632 62.348 95.3752 62.828L95.6272 63.116C96.1552 63.836 96.6832 63.824 97.2112 63.08C97.4272 62.72 97.6672 62.24 97.9312 61.64C98.2192 61.064 98.5432 60.284 98.9032 59.3L91.9192 42.596C91.7512 42.14 91.5712 41.78 91.3792 41.516C91.1872 41.228 90.8752 40.988 90.4432 40.796L89.7952 40.544V40.184H98.7592V40.508L98.0392 40.796C97.5112 40.964 97.2352 41.24 97.2112 41.624C97.2112 41.984 97.3072 42.44 97.4992 42.992L101.243 52.712L104.807 42.884C104.999 42.332 105.071 41.876 105.023 41.516C104.975 41.132 104.675 40.868 104.123 40.724L103.367 40.544V40.184H108.371V40.544L107.579 40.796C107.027 40.964 106.643 41.204 106.427 41.516C106.211 41.828 106.007 42.26 105.815 42.812L100.019 58.616C99.0832 61.136 98.1472 63.02 97.2112 64.268C96.2752 65.516 95.0632 66.14 93.5752 66.14ZM117.476 57.5V57.14L118.196 56.888C118.676 56.744 118.988 56.528 119.132 56.24C119.3 55.952 119.384 55.568 119.384 55.088V36.224C119.384 35.744 119.3 35.36 119.132 35.072C118.964 34.784 118.64 34.556 118.16 34.388L117.476 34.1V33.74H126.224C129.8 33.74 132.38 34.4 133.964 35.72C135.572 37.016 136.376 38.732 136.376 40.868C136.376 42.236 136.04 43.496 135.368 44.648C134.72 45.776 133.64 46.676 132.128 47.348C130.616 48.02 128.576 48.356 126.008 48.356H124.784V54.98C124.784 55.916 125.252 56.528 126.188 56.816L127.268 57.14V57.5H117.476ZM124.784 47.636H126.152C127.328 47.636 128.288 47.444 129.032 47.06C129.776 46.676 130.328 46.004 130.688 45.044C131.048 44.084 131.228 42.752 131.228 41.048C131.228 39.32 131.024 37.976 130.616 37.016C130.232 36.056 129.656 35.396 128.888 35.036C128.12 34.652 127.16 34.46 126.008 34.46H124.784V47.636ZM144.275 58.04C143.339 58.04 142.475 57.86 141.683 57.5C140.915 57.14 140.303 56.564 139.847 55.772C139.415 54.956 139.211 53.888 139.235 52.568L139.343 43.316C139.343 42.764 139.247 42.368 139.055 42.128C138.863 41.888 138.563 41.72 138.155 41.624L137.723 41.48V41.12L144.167 39.86L144.527 40.22L144.347 45.332V54.008C144.347 54.776 144.563 55.34 144.995 55.7C145.451 56.06 146.015 56.24 146.687 56.24C147.359 56.24 147.959 56.144 148.487 55.952C149.015 55.76 149.543 55.472 150.071 55.088L150.215 43.352C150.215 42.8 150.131 42.416 149.963 42.2C149.795 41.96 149.483 41.792 149.027 41.696L148.667 41.588V41.228L154.967 39.86L155.327 40.22L155.219 45.332V55.088C155.219 55.616 155.291 56.024 155.435 56.312C155.579 56.6 155.891 56.84 156.371 57.032L156.731 57.14V57.5L150.431 57.86L150.107 55.736C149.315 56.384 148.451 56.936 147.515 57.392C146.603 57.824 145.523 58.04 144.275 58.04ZM164.341 57.968L158.257 57.5V57.14L158.617 57.068C159.553 56.852 160.021 56.252 160.021 55.268V36.008C160.021 35.504 159.937 35.12 159.769 34.856C159.625 34.592 159.313 34.412 158.833 34.316L158.329 34.172V33.812L164.737 32.264L165.169 32.588L165.025 37.664V41.3C165.817 40.748 166.681 40.34 167.617 40.076C168.553 39.788 169.501 39.644 170.461 39.644C171.829 39.644 173.041 39.968 174.097 40.616C175.153 41.24 175.981 42.224 176.581 43.568C177.205 44.888 177.517 46.592 177.517 48.68C177.517 50.768 177.169 52.508 176.473 53.9C175.801 55.268 174.889 56.3 173.737 56.996C172.609 57.692 171.361 58.04 169.993 58.04C169.105 58.04 168.205 57.92 167.293 57.68C166.405 57.44 165.613 57.104 164.917 56.672L164.341 57.968ZM168.193 56.816C168.961 56.816 169.633 56.576 170.209 56.096C170.785 55.616 171.241 54.8 171.577 53.648C171.913 52.472 172.081 50.864 172.081 48.824C172.081 46.784 171.925 45.212 171.613 44.108C171.301 43.004 170.857 42.236 170.281 41.804C169.729 41.372 169.057 41.156 168.265 41.156C167.137 41.156 166.093 41.468 165.133 42.092V55.916C165.589 56.204 166.057 56.432 166.537 56.6C167.017 56.744 167.569 56.816 168.193 56.816ZM179.07 57.5V57.14L179.502 56.996C180.366 56.708 180.798 56.108 180.798 55.196V35.936C180.798 35.456 180.702 35.096 180.51 34.856C180.318 34.592 179.982 34.4 179.502 34.28L179.034 34.172V33.812L185.622 32.264L186.054 32.588L185.91 37.628V49.94C185.91 50.828 185.91 51.716 185.91 52.604C185.934 53.468 185.946 54.332 185.946 55.196C185.946 55.676 186.042 56.072 186.234 56.384C186.426 56.672 186.75 56.888 187.206 57.032L187.674 57.14V57.5H179.07ZM193.583 37.772C192.767 37.772 192.071 37.52 191.495 37.016C190.943 36.488 190.667 35.828 190.667 35.036C190.667 34.22 190.943 33.56 191.495 33.056C192.071 32.552 192.767 32.3 193.583 32.3C194.399 32.3 195.083 32.552 195.635 33.056C196.187 33.56 196.463 34.22 196.463 35.036C196.463 35.828 196.187 36.488 195.635 37.016C195.083 37.52 194.399 37.772 193.583 37.772ZM189.335 57.5V57.14L189.839 56.996C190.319 56.852 190.643 56.636 190.811 56.348C191.003 56.06 191.099 55.676 191.099 55.196V43.928C191.099 43.424 191.003 43.052 190.811 42.812C190.643 42.548 190.319 42.368 189.839 42.272L189.335 42.164V41.804L195.923 39.68L196.283 40.04L196.175 45.152V55.232C196.175 55.712 196.259 56.096 196.427 56.384C196.619 56.672 196.943 56.888 197.399 57.032L197.759 57.14V57.5H189.335ZM208.281 58.04C206.649 58.04 205.161 57.692 203.817 56.996C202.497 56.276 201.441 55.244 200.649 53.9C199.881 52.532 199.497 50.864 199.497 48.896C199.497 46.952 199.917 45.296 200.757 43.928C201.621 42.536 202.761 41.48 204.177 40.76C205.617 40.016 207.189 39.644 208.893 39.644C210.285 39.644 211.461 39.872 212.421 40.328C213.381 40.784 214.113 41.384 214.617 42.128C215.121 42.848 215.373 43.604 215.373 44.396C215.373 45.068 215.169 45.596 214.761 45.98C214.353 46.34 213.825 46.52 213.177 46.52C212.481 46.52 211.917 46.268 211.485 45.764C211.053 45.26 210.801 44.6 210.729 43.784C210.705 43.256 210.717 42.812 210.765 42.452C210.813 42.068 210.813 41.684 210.765 41.3C210.669 40.892 210.513 40.628 210.297 40.508C210.105 40.364 209.829 40.292 209.469 40.292C208.005 40.292 206.865 40.928 206.049 42.2C205.257 43.472 204.861 45.5 204.861 48.284C204.861 50.708 205.305 52.568 206.193 53.864C207.105 55.136 208.497 55.772 210.369 55.772C211.497 55.772 212.409 55.568 213.105 55.16C213.801 54.752 214.473 54.14 215.121 53.324L215.481 53.612C214.881 55.028 213.957 56.12 212.709 56.888C211.461 57.656 209.985 58.04 208.281 58.04Z" fill="white"/>
</svg>
