<svg width="123" height="76" viewBox="0 0 123 76" fill="none" xmlns="http://www.w3.org/2000/svg">
<path d="M0.858772 23.9227V23.5678L1.60404 23.2839C2.36114 22.9763 2.73969 22.373 2.73969 21.474V2.94874C2.73969 2.00237 2.36114 1.39905 1.60404 1.1388L0.858772 0.854889V0.5H10.2279C12.7357 0.5 14.8887 0.973186 16.6868 1.91956C18.5086 2.84227 19.9045 4.17902 20.8745 5.92981C21.8682 7.65694 22.3651 9.73896 22.3651 12.1759C22.3651 14.6601 21.8327 16.7776 20.7681 18.5284C19.7034 20.2792 18.2129 21.6159 16.2965 22.5386C14.4037 23.4614 12.1679 23.9227 9.58906 23.9227H0.858772ZM8.06303 23.2129H9.58906C11.2925 23.2129 12.6648 22.8817 13.7058 22.2192C14.7468 21.5331 15.5039 20.3975 15.9771 18.8123C16.4739 17.2035 16.7223 15.0032 16.7223 12.2114C16.7223 9.41956 16.4739 7.23107 15.9771 5.6459C15.5039 4.03707 14.7586 2.90142 13.7413 2.23896C12.7239 1.55284 11.3872 1.20978 9.73101 1.20978H8.06303V23.2129Z" fill="white"/>
<path d="M32.7079 6.32019C34.2457 6.32019 35.5588 6.63959 36.6472 7.27839C37.7355 7.89353 38.5636 8.74527 39.1314 9.8336C39.7229 10.8983 40.0186 12.1167 40.0186 13.489C40.0186 13.7492 40.0068 14.0213 39.9831 14.3052C39.9595 14.5655 39.9122 14.802 39.8412 15.015H29.2655C29.2891 17.5702 29.7387 19.4156 30.614 20.5513C31.5131 21.6632 32.838 22.2192 34.5888 22.2192C35.7718 22.2192 36.73 22.03 37.4634 21.6514C38.1969 21.2729 38.883 20.7169 39.5218 19.9834L39.8767 20.3028C39.1432 21.6041 38.1614 22.6215 36.9311 23.3549C35.7245 24.0883 34.2694 24.455 32.5659 24.455C30.8861 24.455 29.3956 24.1002 28.0943 23.3904C26.7931 22.6569 25.7757 21.6159 25.0423 20.2673C24.3088 18.9188 23.9421 17.3099 23.9421 15.4409C23.9421 13.5008 24.368 11.8565 25.2197 10.5079C26.0715 9.13565 27.1598 8.09464 28.4847 7.38486C29.8333 6.67508 31.241 6.32019 32.7079 6.32019ZM32.6014 7.02997C31.9153 7.02997 31.3238 7.2429 30.827 7.66877C30.3538 8.07098 29.9752 8.80442 29.6913 9.86908C29.4311 10.9101 29.2891 12.3888 29.2655 14.3052H35.3341C35.5707 11.7263 35.476 9.86908 35.0502 8.73344C34.6243 7.59779 33.8081 7.02997 32.6014 7.02997Z" fill="white"/>
<path d="M41.7872 23.9227V23.5678L42.3196 23.4259C42.7928 23.2839 43.1122 23.071 43.2778 22.7871C43.4671 22.5032 43.5617 22.1364 43.5617 21.6869V10.5789C43.5617 10.0584 43.4671 9.67981 43.2778 9.44322C43.1122 9.18297 42.7928 9.00552 42.3196 8.91088L41.7872 8.76893V8.41404L47.8913 6.35568L48.2462 6.71057L48.5656 9.76262V10.0465C48.8969 9.38407 49.3227 8.78076 49.8432 8.23659C50.3874 7.66877 50.9789 7.20741 51.6177 6.85252C52.2801 6.49763 52.9308 6.32019 53.5696 6.32019C54.4686 6.32019 55.1548 6.56861 55.6279 7.06546C56.1011 7.5623 56.3377 8.18927 56.3377 8.94637C56.3377 9.75079 56.1011 10.3778 55.6279 10.8273C55.1784 11.2532 54.6342 11.4661 53.9954 11.4661C53.0018 11.4661 52.1264 10.9692 51.3693 9.97555L51.2983 9.90457C51.0617 9.57334 50.7896 9.3959 50.482 9.37224C50.1745 9.32492 49.8906 9.46688 49.6303 9.79811C49.3937 10.011 49.1926 10.2713 49.027 10.5789C48.885 10.8628 48.7431 11.194 48.6011 11.5726V21.474C48.6011 22.4203 49.0152 23.0118 49.8432 23.2484L50.9789 23.5678V23.9227H41.7872Z" fill="white"/>
<path d="M57.4523 23.9227V23.5678L57.9491 23.4259C58.3987 23.3076 58.7062 23.1065 58.8718 22.8226C59.0611 22.5386 59.1676 22.1601 59.1913 21.6869V10.5789C59.1913 10.0584 59.1084 9.67981 58.9428 9.44322C58.7772 9.18297 58.4578 9.00552 57.9846 8.91088L57.4523 8.76893V8.41404L63.5209 6.35568L63.8758 6.71057L64.1597 9.12382C64.9405 8.34306 65.8277 7.6806 66.8214 7.13644C67.8387 6.59227 68.8916 6.32019 69.9799 6.32019C71.1155 6.32019 72.0264 6.55678 72.7125 7.02997C73.3987 7.4795 73.9192 8.18927 74.2741 9.15931C75.1968 8.28391 76.1905 7.59779 77.2551 7.10095C78.3435 6.58044 79.3963 6.32019 80.4137 6.32019C82.0935 6.32019 83.3237 6.7224 84.1045 7.52681C84.9089 8.33123 85.3111 9.597 85.3111 11.3241V21.7224C85.3111 22.6451 85.737 23.2248 86.5887 23.4614L86.9791 23.5678V23.9227H78.7812V23.5678L79.136 23.4614C79.5856 23.3194 79.8931 23.1065 80.0588 22.8226C80.248 22.5386 80.3427 22.1601 80.3427 21.6869V10.8273C80.3427 9.8336 80.1652 9.15931 79.8103 8.80442C79.4555 8.42587 78.8876 8.23659 78.1069 8.23659C77.4917 8.23659 76.8884 8.37855 76.2969 8.66246C75.7291 8.92271 75.1258 9.32492 74.487 9.86908C74.6053 10.2476 74.6763 10.6617 74.6999 11.1112C74.7472 11.5607 74.7709 12.0339 74.7709 12.5308V21.7224C74.7946 22.6451 75.2204 23.2248 76.0485 23.4614L76.3679 23.5678V23.9227H68.1345V23.5678L68.6313 23.4259C69.0808 23.2839 69.3884 23.0828 69.554 22.8226C69.7433 22.5386 69.8379 22.1601 69.8379 21.6869V10.8628C69.8379 9.9164 69.6605 9.24211 69.3056 8.83991C68.9744 8.4377 68.3947 8.23659 67.5666 8.23659C67.0225 8.23659 66.4783 8.37855 65.9342 8.66246C65.39 8.92271 64.8222 9.31309 64.2307 9.8336V21.7224C64.2307 22.6451 64.6447 23.2248 65.4728 23.4614L65.7922 23.5678V23.9227H57.4523Z" fill="white"/>
<path d="M97.3452 24.455C95.5471 24.455 93.9856 24.0883 92.6607 23.3549C91.3357 22.5978 90.3066 21.5331 89.5731 20.1609C88.8633 18.7886 88.5085 17.1798 88.5085 15.3344C88.5085 13.489 88.887 11.892 89.6441 10.5434C90.4249 9.1948 91.4777 8.15379 92.8026 7.42035C94.1512 6.68691 95.6654 6.32019 97.3452 6.32019C99.025 6.32019 100.527 6.68691 101.852 7.42035C103.177 8.13013 104.218 9.15931 104.975 10.5079C105.756 11.8565 106.146 13.4653 106.146 15.3344C106.146 17.2035 105.78 18.8241 105.046 20.1964C104.337 21.545 103.319 22.5978 101.994 23.3549C100.693 24.0883 99.1433 24.455 97.3452 24.455ZM97.3452 23.7453C98.1733 23.7453 98.8357 23.5087 99.3326 23.0355C99.8294 22.5623 100.184 21.7224 100.397 20.5158C100.634 19.3091 100.752 17.6057 100.752 15.4054C100.752 13.1814 100.634 11.4661 100.397 10.2595C100.184 9.05284 99.8294 8.21293 99.3326 7.73975C98.8357 7.26656 98.1733 7.02997 97.3452 7.02997C96.5171 7.02997 95.8428 7.26656 95.3223 7.73975C94.8255 8.21293 94.4588 9.05284 94.2222 10.2595C94.0092 11.4661 93.9028 13.1814 93.9028 15.4054C93.9028 17.6057 94.0092 19.3091 94.2222 20.5158C94.4588 21.7224 94.8255 22.5623 95.3223 23.0355C95.8428 23.5087 96.5171 23.7453 97.3452 23.7453Z" fill="white"/>
<path d="M114.309 24.455C112.795 24.455 111.612 24.0765 110.761 23.3194C109.933 22.5623 109.518 21.3557 109.518 19.6995V7.5623H107.07V7.20741L107.921 7.06546C108.655 6.89984 109.282 6.66325 109.802 6.35568C110.347 6.04811 110.879 5.63407 111.399 5.11356L114.309 1.88407H114.664L114.558 6.85252H118.533V7.5623H114.522V20.3383C114.522 21.1664 114.7 21.7934 115.055 22.2192C115.433 22.6451 115.906 22.858 116.474 22.858C116.971 22.858 117.409 22.7397 117.787 22.5032C118.166 22.2429 118.544 21.8998 118.923 21.474L119.278 21.8289C118.805 22.6333 118.154 23.2721 117.326 23.7453C116.498 24.2185 115.492 24.455 114.309 24.455Z" fill="white"/>
<path d="M8.45341 51.6317L2.17186 30.5158C2.00625 29.9716 1.8288 29.5812 1.63953 29.3446C1.45025 29.0844 1.11902 28.8478 0.645838 28.6349L0.219971 28.4574V28.1025H9.62455V28.4574L8.87928 28.7413C8.33511 28.9543 7.96839 29.2145 7.77912 29.5221C7.58984 29.8297 7.57801 30.2555 7.74363 30.7997L11.6119 45.5631L15.7996 33.1774L14.9834 30.6577C14.8178 30.1609 14.664 29.7823 14.522 29.5221C14.3801 29.2618 14.1435 29.0489 13.8122 28.8833L13.0315 28.4574V28.1025H21.9392V28.4574L20.8391 28.8833C20.3659 29.0489 20.0938 29.2973 20.0228 29.6285C19.9755 29.9361 20.0346 30.3383 20.2003 30.8352L24.7074 45.918L28.966 31.1191C29.1316 30.5513 29.1908 30.0544 29.1435 29.6285C29.0962 29.2027 28.8004 28.8951 28.2562 28.7058L27.511 28.4574V28.1025H32.4439V28.4574L31.5212 28.8123C31.048 28.9779 30.7168 29.2382 30.5275 29.5931C30.3383 29.9479 30.1727 30.3856 30.0307 30.9062L24.1395 51.6317H21.6908L16.3674 34.9519L10.9021 51.6317H8.45341Z" fill="white"/>
<path d="M36.6192 32.0773C35.8147 32.0773 35.1286 31.8289 34.5608 31.332C34.0166 30.8115 33.7446 30.1609 33.7446 29.3801C33.7446 28.5757 34.0166 27.9251 34.5608 27.4282C35.1286 26.9314 35.8147 26.683 36.6192 26.683C37.4236 26.683 38.0979 26.9314 38.642 27.4282C39.1862 27.9251 39.4583 28.5757 39.4583 29.3801C39.4583 30.1609 39.1862 30.8115 38.642 31.332C38.0979 31.8289 37.4236 32.0773 36.6192 32.0773ZM32.4315 51.5252V51.1703L32.9283 51.0284C33.4015 50.8864 33.7209 50.6735 33.8865 50.3896C34.0758 50.1057 34.1704 49.7271 34.1704 49.2539V38.1459C34.1704 37.6491 34.0758 37.2823 33.8865 37.0457C33.7209 36.7855 33.4015 36.608 32.9283 36.5134L32.4315 36.4069V36.052L38.9259 33.9582L39.2808 34.3131L39.1744 39.3525V49.2894C39.1744 49.7626 39.2572 50.1412 39.4228 50.4251C39.6121 50.709 39.9315 50.9219 40.381 51.0639L40.7359 51.1703V51.5252H32.4315Z" fill="white"/>
<path d="M42.3071 51.5252V51.1703L42.8039 51.0284C43.632 50.7918 44.0461 50.2121 44.0461 49.2894V38.1814C44.0461 37.6609 43.9633 37.2823 43.7976 37.0457C43.632 36.7855 43.3126 36.608 42.8394 36.5134L42.3071 36.3715V36.0166L48.3757 33.9582L48.7306 34.3131L49.0145 36.4424C49.8426 35.709 50.7771 35.1057 51.8181 34.6325C52.8592 34.1593 53.8883 33.9227 54.9057 33.9227C56.4672 33.9227 57.662 34.3486 58.4901 35.2003C59.3418 36.052 59.7677 37.3533 59.7677 39.1041V49.3249C59.7677 50.2476 60.2172 50.8273 61.1163 51.0639L61.4356 51.1703V51.5252H53.0603V51.1703L53.5216 51.0284C54.3497 50.7681 54.7637 50.1885 54.7637 49.2894V37.9685C54.7637 36.4543 54.0066 35.6972 52.4924 35.6972C51.4514 35.6972 50.3158 36.2177 49.0855 37.2587V49.3249C49.0855 50.2476 49.4995 50.8273 50.3276 51.0639L50.647 51.1703V51.5252H42.3071Z" fill="white"/>
<path d="M69.3938 52.0576C67.8796 52.0576 66.6966 51.679 65.8449 50.9219C65.0168 50.1648 64.6028 48.9582 64.6028 47.3021V35.1648H62.154V34.8099L63.0058 34.668C63.7392 34.5024 64.3662 34.2658 64.8867 33.9582C65.4308 33.6506 65.9632 33.2366 66.4837 32.7161L69.3938 29.4866H69.7487L69.6422 34.455H73.617V35.1648H69.6067V47.9409C69.6067 48.7689 69.7841 49.3959 70.139 49.8218C70.5176 50.2476 70.9908 50.4606 71.5586 50.4606C72.0554 50.4606 72.4931 50.3423 72.8717 50.1057C73.2502 49.8454 73.6288 49.5024 74.0073 49.0765L74.3622 49.4314C73.889 50.2358 73.2384 50.8746 72.4103 51.3478C71.5823 51.821 70.5767 52.0576 69.3938 52.0576Z" fill="white"/>
<path d="M84.2778 33.9227C85.8156 33.9227 87.1287 34.2421 88.2171 34.8809C89.3054 35.4961 90.1335 36.3478 90.7013 37.4361C91.2928 38.5008 91.5885 39.7192 91.5885 41.0915C91.5885 41.3517 91.5767 41.6238 91.553 41.9077C91.5294 42.168 91.482 42.4046 91.4111 42.6175H80.8354C80.859 45.1727 81.3085 47.0181 82.1839 48.1538C83.083 49.2658 84.4079 49.8218 86.1587 49.8218C87.3417 49.8218 88.2999 49.6325 89.0333 49.2539C89.7667 48.8754 90.4529 48.3194 91.0917 47.586L91.4466 47.9054C90.7131 49.2066 89.7313 50.224 88.501 50.9574C87.2944 51.6909 85.8393 52.0576 84.1358 52.0576C82.456 52.0576 80.9655 51.7027 79.6642 50.9929C78.363 50.2595 77.3456 49.2185 76.6122 47.8699C75.8787 46.5213 75.512 44.9125 75.512 43.0434C75.512 41.1033 75.9379 39.459 76.7896 38.1104C77.6413 36.7382 78.7297 35.6972 80.0546 34.9874C81.4032 34.2776 82.8109 33.9227 84.2778 33.9227ZM84.1713 34.6325C83.4852 34.6325 82.8937 34.8454 82.3969 35.2713C81.9237 35.6735 81.5451 36.4069 81.2612 37.4716C81.001 38.5126 80.859 39.9913 80.8354 41.9077H86.904C87.1406 39.3289 87.0459 37.4716 86.6201 36.336C86.1942 35.2003 85.3779 34.6325 84.1713 34.6325Z" fill="white"/>
<path d="M93.3571 51.5252V51.1703L93.8895 51.0284C94.3627 50.8864 94.6821 50.6735 94.8477 50.3896C95.0369 50.1057 95.1316 49.739 95.1316 49.2894V38.1814C95.1316 37.6609 95.0369 37.2823 94.8477 37.0457C94.6821 36.7855 94.3627 36.608 93.8895 36.5134L93.3571 36.3715V36.0166L99.4612 33.9582L99.8161 34.3131L100.136 37.3651V37.6491C100.467 36.9866 100.893 36.3833 101.413 35.8391C101.957 35.2713 102.549 34.8099 103.188 34.455C103.85 34.1002 104.501 33.9227 105.139 33.9227C106.039 33.9227 106.725 34.1711 107.198 34.668C107.671 35.1648 107.908 35.7918 107.908 36.5489C107.908 37.3533 107.671 37.9803 107.198 38.4298C106.748 38.8557 106.204 39.0686 105.565 39.0686C104.572 39.0686 103.696 38.5718 102.939 37.5781L102.868 37.5071C102.632 37.1759 102.36 36.9984 102.052 36.9748C101.744 36.9274 101.46 37.0694 101.2 37.4006C100.964 37.6136 100.762 37.8738 100.597 38.1814C100.455 38.4653 100.313 38.7965 100.171 39.1751V49.0765C100.171 50.0229 100.585 50.6144 101.413 50.8509L102.549 51.1703V51.5252H93.3571Z" fill="white"/>
<path d="M114.815 52.0576C113.656 52.0576 112.615 51.9156 111.692 51.6317C110.769 51.3714 109.918 51.0402 109.137 50.638L109.172 46.4148H109.527L110.734 48.5442C111.254 49.4905 111.822 50.2003 112.437 50.6735C113.076 51.123 113.881 51.3478 114.851 51.3478C115.986 51.3478 116.897 51.0994 117.583 50.6025C118.293 50.082 118.648 49.3959 118.648 48.5442C118.648 47.7634 118.4 47.1246 117.903 46.6278C117.406 46.1309 116.483 45.6814 115.135 45.2792L113.644 44.8178C112.201 44.392 111.065 43.7295 110.237 42.8304C109.409 41.9314 108.995 40.8312 108.995 39.53C108.995 37.9685 109.61 36.6435 110.84 35.5552C112.071 34.4669 113.833 33.9227 116.128 33.9227C117.051 33.9227 117.915 34.0292 118.719 34.2421C119.547 34.4314 120.34 34.7271 121.097 35.1293L120.884 38.9621H120.529L119.287 36.7618C118.837 35.9811 118.388 35.4369 117.938 35.1293C117.512 34.7981 116.862 34.6325 115.986 34.6325C115.182 34.6325 114.425 34.8573 113.715 35.3068C113.005 35.7563 112.65 36.3951 112.65 37.2232C112.65 38.0276 112.946 38.6664 113.538 39.1396C114.153 39.6128 115.052 40.0505 116.235 40.4527L117.832 40.914C119.535 41.4345 120.754 42.1562 121.487 43.0789C122.221 43.9779 122.587 45.0662 122.587 46.3438C122.587 48.071 121.901 49.455 120.529 50.4961C119.18 51.5371 117.276 52.0576 114.815 52.0576Z" fill="white"/>
<path d="M9.37415 72.72C9.18685 72.375 8.94533 71.9708 8.64958 71.5075C8.3637 71.0442 8.04824 70.5513 7.70321 70.0288C7.35818 69.4964 6.99343 68.9543 6.60897 68.4022C6.22451 67.8403 5.84004 67.2981 5.45558 66.7756C5.08097 66.2433 4.7113 65.7455 4.34655 65.2821C3.99166 64.8188 3.67127 64.4196 3.38539 64.0844V72.72H2.39466V62.4726H3.19316C3.69592 63.0345 4.23318 63.6851 4.80495 64.4245C5.38657 65.154 5.95341 65.9032 6.50546 66.6721C7.05751 67.4312 7.57013 68.1755 8.04331 68.905C8.52636 69.6345 8.92068 70.2703 9.22628 70.8125V62.4726H10.217V72.72H9.37415Z" fill="white"/>
<path d="M19.3404 68.905C19.3404 69.5063 19.2517 70.0534 19.0742 70.5463C18.9066 71.0392 18.6651 71.4582 18.3497 71.8032C18.0441 72.1483 17.6793 72.4194 17.2554 72.6165C16.8315 72.8038 16.3633 72.8975 15.8507 72.8975C15.338 72.8975 14.8698 72.8038 14.4459 72.6165C14.022 72.4194 13.6523 72.1483 13.3369 71.8032C13.0313 71.4582 12.7897 71.0392 12.6123 70.5463C12.4447 70.0534 12.3609 69.5063 12.3609 68.905C12.3609 68.3036 12.4447 67.7565 12.6123 67.2636C12.7897 66.7707 13.0313 66.3517 13.3369 66.0067C13.6523 65.6518 14.022 65.3807 14.4459 65.1934C14.8698 64.9963 15.338 64.8977 15.8507 64.8977C16.3633 64.8977 16.8315 64.9963 17.2554 65.1934C17.6793 65.3807 18.0441 65.6518 18.3497 66.0067C18.6651 66.3517 18.9066 66.7707 19.0742 67.2636C19.2517 67.7565 19.3404 68.3036 19.3404 68.905ZM18.3201 68.905C18.3201 67.9487 18.0983 67.1897 17.6547 66.6278C17.2111 66.056 16.6097 65.7701 15.8507 65.7701C15.0916 65.7701 14.4902 66.056 14.0466 66.6278C13.603 67.1897 13.3812 67.9487 13.3812 68.905C13.3812 69.8612 13.603 70.6203 14.0466 71.1822C14.4902 71.7441 15.0916 72.025 15.8507 72.025C16.6097 72.025 17.2111 71.7441 17.6547 71.1822C18.0983 70.6203 18.3201 69.8612 18.3201 68.905Z" fill="white"/>
<path d="M22.3279 65.0751H25.374V65.8884H22.3279V69.9548C22.3279 70.3886 22.3624 70.7435 22.4314 71.0195C22.5102 71.2857 22.6187 71.4927 22.7567 71.6406C22.8947 71.7884 23.0623 71.887 23.2594 71.9363C23.4566 71.9856 23.6735 72.0103 23.9101 72.0103C24.3142 72.0103 24.6396 71.9659 24.886 71.8772C25.1325 71.7786 25.3247 71.6899 25.4627 71.611L25.6993 72.4095C25.5613 72.4982 25.3198 72.6017 24.9747 72.72C24.6297 72.8285 24.2551 72.8827 23.8509 72.8827C23.3777 72.8827 22.9785 72.8235 22.6532 72.7052C22.3377 72.5771 22.0814 72.3898 21.8842 72.1433C21.6969 71.887 21.5639 71.5716 21.485 71.197C21.4061 70.8224 21.3667 70.3787 21.3667 69.8661V62.8275L22.3279 62.65V65.0751Z" fill="white"/>
<path d="M29.5546 72.025C29.9292 72.025 30.2545 72.0152 30.5305 71.9955C30.8164 71.9659 31.0579 71.9314 31.2551 71.892V69.2007C31.1466 69.1514 30.9741 69.1021 30.7375 69.0528C30.5009 68.9937 30.1756 68.9641 29.7616 68.9641C29.525 68.9641 29.2785 68.9838 29.0222 69.0233C28.7659 69.0528 28.5293 69.1268 28.3125 69.2451C28.0956 69.3535 27.9181 69.5063 27.7801 69.7035C27.6421 69.9006 27.5731 70.1619 27.5731 70.4872C27.5731 70.7731 27.6175 71.0146 27.7062 71.2118C27.8048 71.4089 27.9378 71.5666 28.1054 71.6849C28.2829 71.8032 28.4899 71.892 28.7265 71.9511C28.9729 72.0004 29.249 72.025 29.5546 72.025ZM29.4658 64.8977C29.9686 64.8977 30.3925 64.9716 30.7375 65.1195C31.0924 65.2575 31.3783 65.4547 31.5952 65.711C31.8121 65.9574 31.9698 66.2532 32.0684 66.5982C32.1669 66.9432 32.2162 67.3178 32.2162 67.722V72.5426C32.1177 72.5722 31.9747 72.6067 31.7874 72.6461C31.6001 72.6757 31.3832 72.7102 31.1368 72.7496C30.8903 72.789 30.6143 72.8186 30.3087 72.8383C30.013 72.8679 29.7074 72.8827 29.3919 72.8827C28.9877 72.8827 28.6131 72.8383 28.2681 72.7496C27.9329 72.6609 27.6372 72.5229 27.3809 72.3356C27.1344 72.1384 26.9373 71.892 26.7894 71.5962C26.6514 71.2906 26.5824 70.9209 26.5824 70.4872C26.5824 70.0731 26.6612 69.7183 26.819 69.4225C26.9767 69.1268 27.1985 68.8853 27.4844 68.6979C27.7703 68.5008 28.1104 68.3578 28.5047 68.2691C28.899 68.1804 29.3278 68.136 29.7912 68.136C29.9292 68.136 30.0721 68.1459 30.22 68.1656C30.3777 68.1755 30.5256 68.1952 30.6636 68.2248C30.8115 68.2445 30.9347 68.2691 31.0333 68.2987C31.1417 68.3184 31.2156 68.3381 31.2551 68.3578V67.8847C31.2551 67.6185 31.2354 67.3622 31.1959 67.1157C31.1565 66.8594 31.0678 66.6327 30.9298 66.4355C30.8016 66.2285 30.6143 66.0658 30.3679 65.9476C30.1313 65.8194 29.8158 65.7553 29.4215 65.7553C28.8596 65.7553 28.4406 65.7948 28.1646 65.8736C27.8886 65.9525 27.6865 66.0166 27.5583 66.0659L27.4252 65.223C27.5928 65.1441 27.8491 65.0702 28.1942 65.0012C28.549 64.9322 28.9729 64.8977 29.4658 64.8977Z" fill="white"/>
<path d="M37.2703 64.9272C37.5858 64.9272 37.8815 64.9519 38.1575 65.0012C38.4434 65.0505 38.6406 65.0998 38.749 65.1491L38.5568 65.9771C38.4779 65.9377 38.3152 65.8983 38.0688 65.8588C37.8322 65.8095 37.5167 65.7849 37.1224 65.7849C36.7084 65.7849 36.3732 65.8145 36.1169 65.8736C35.8705 65.9328 35.7078 65.9821 35.6289 66.0215V72.72H34.6678V65.43C34.9142 65.3216 35.2543 65.2131 35.6881 65.1047C36.1218 64.9864 36.6492 64.9272 37.2703 64.9272Z" fill="white"/>
<path d="M42.6012 72.8827C42.2758 72.2813 41.9604 71.6554 41.6548 71.0047C41.359 70.3541 41.0781 69.6985 40.8119 69.0381C40.5556 68.3677 40.319 67.7023 40.1021 67.0418C39.8853 66.3714 39.698 65.7159 39.5402 65.0751H40.5605C40.669 65.5483 40.807 66.0609 40.9746 66.613C41.1422 67.1552 41.3295 67.7171 41.5365 68.2987C41.7534 68.8803 41.99 69.4767 42.2463 70.0879C42.5026 70.6991 42.7786 71.3005 43.0743 71.892C43.2912 71.2808 43.4834 70.7041 43.651 70.1619C43.8186 69.6197 43.9714 69.0824 44.1094 68.5501C44.2573 68.0079 44.3953 67.4558 44.5235 66.8939C44.6615 66.332 44.8044 65.7257 44.9523 65.0751H45.9135C45.598 66.5045 45.2382 67.8945 44.834 69.2451C44.4298 70.5956 43.9911 71.8328 43.5179 72.9566C43.3306 73.4002 43.1384 73.7798 42.9413 74.0952C42.7441 74.4205 42.5223 74.6867 42.2758 74.8937C42.0392 75.1008 41.7583 75.2535 41.433 75.3521C41.1175 75.4507 40.7429 75.5 40.3092 75.5C40.0627 75.5 39.836 75.4704 39.6289 75.4113C39.4318 75.3521 39.3086 75.3078 39.2593 75.2782L39.4515 74.4797C39.4909 74.5093 39.5994 74.5487 39.7768 74.598C39.9641 74.6571 40.1564 74.6867 40.3535 74.6867C40.6295 74.6867 40.876 74.6571 41.0929 74.598C41.3196 74.5388 41.5217 74.4353 41.6991 74.2875C41.8766 74.1494 42.0343 73.9671 42.1723 73.7403C42.3202 73.5136 42.4631 73.2277 42.6012 72.8827Z" fill="white"/>
<path d="M53.5313 62.3839C54.9805 62.3839 56.0599 62.6599 56.7697 63.2119C57.4795 63.764 57.8344 64.5477 57.8344 65.5631C57.8344 66.1447 57.7309 66.6425 57.5238 67.0566C57.3168 67.4608 57.0211 67.791 56.6366 68.0473C56.2522 68.2938 55.779 68.4761 55.2171 68.5944C54.665 68.7029 54.039 68.7571 53.3391 68.7571H51.9491V72.72H50.9436V62.6648C51.2985 62.5662 51.7125 62.4972 52.1857 62.4578C52.6688 62.4085 53.1173 62.3839 53.5313 62.3839ZM53.5757 63.2563C53.2011 63.2563 52.8807 63.2711 52.6145 63.3007C52.3582 63.3204 52.1364 63.3401 51.9491 63.3598V67.8847H53.2208C53.763 67.8847 54.251 67.8551 54.6847 67.7959C55.1283 67.7269 55.5029 67.6086 55.8085 67.441C56.124 67.2636 56.3655 67.0221 56.5331 66.7165C56.7007 66.4109 56.7845 66.0215 56.7845 65.5483C56.7845 65.0948 56.6908 64.7202 56.5035 64.4245C56.3261 64.1287 56.0846 63.8971 55.779 63.7295C55.4832 63.552 55.1431 63.4288 54.7587 63.3598C54.3742 63.2908 53.9799 63.2563 53.5757 63.2563Z" fill="white"/>
<path d="M65.5058 72.4539C65.22 72.5327 64.8355 72.6215 64.3525 72.72C63.8694 72.8186 63.2779 72.8679 62.578 72.8679C62.0062 72.8679 61.5281 72.7841 61.1437 72.6165C60.7592 72.4489 60.4487 72.2123 60.2121 71.9067C59.9755 71.6011 59.803 71.2315 59.6945 70.7977C59.596 70.364 59.5467 69.8858 59.5467 69.3634V65.0751H60.5078V69.0528C60.5078 69.595 60.5473 70.0534 60.6261 70.428C60.705 70.8026 60.8331 71.1082 61.0106 71.3448C61.188 71.5716 61.4148 71.7392 61.6908 71.8476C61.9767 71.9462 62.3217 71.9955 62.7259 71.9955C63.1794 71.9955 63.5737 71.9708 63.9089 71.9215C64.244 71.8722 64.456 71.8279 64.5447 71.7884V65.0751H65.5058V72.4539Z" fill="white"/>
<path d="M69.0154 65.5335C69.1829 65.4054 69.4491 65.2723 69.8139 65.1343C70.1885 64.9864 70.6271 64.9125 71.1299 64.9125C71.682 64.9125 72.1699 65.011 72.5938 65.2082C73.0276 65.4054 73.3923 65.6814 73.6881 66.0363C73.9838 66.3912 74.2056 66.8151 74.3535 67.308C74.5112 67.791 74.5901 68.3233 74.5901 68.905C74.5901 69.526 74.4964 70.083 74.3091 70.5759C74.1317 71.0688 73.8754 71.4878 73.5402 71.8328C73.2149 72.1778 72.8206 72.444 72.3572 72.6313C71.9038 72.8087 71.3961 72.8975 70.8342 72.8975C70.154 72.8975 69.592 72.8531 69.1484 72.7644C68.7048 72.6757 68.3401 72.582 68.0542 72.4834V61.4227L69.0154 61.2453V65.5335ZM69.0154 71.818C69.1632 71.8673 69.3801 71.9166 69.666 71.9659C69.9617 72.0053 70.3462 72.025 70.8194 72.025C71.6474 72.025 72.3129 71.7589 72.8156 71.2265C73.3184 70.6843 73.5698 69.9105 73.5698 68.905C73.5698 68.4811 73.5254 68.0818 73.4367 67.7072C73.348 67.3228 73.205 66.9925 73.0079 66.7165C72.8107 66.4306 72.5495 66.2039 72.2241 66.0363C71.9087 65.8687 71.5144 65.7849 71.0412 65.7849C70.8144 65.7849 70.5976 65.8095 70.3905 65.8588C70.1835 65.8983 69.9913 65.9525 69.8139 66.0215C69.6364 66.0905 69.4787 66.1644 69.3407 66.2433C69.2125 66.3222 69.1041 66.3961 69.0154 66.4651V71.818Z" fill="white"/>
<path d="M78.6123 72.8531C78.287 72.8433 78.0011 72.7989 77.7546 72.72C77.518 72.651 77.3159 72.5426 77.1484 72.3947C76.9906 72.237 76.8674 72.0398 76.7787 71.8032C76.6998 71.5568 76.6604 71.2512 76.6604 70.8864V61.4227L77.6215 61.2453V70.8569C77.6215 71.0935 77.6413 71.2857 77.6807 71.4336C77.73 71.5716 77.799 71.6849 77.8877 71.7737C77.9764 71.8525 78.0898 71.9117 78.2278 71.9511C78.3757 71.9905 78.5482 72.025 78.7454 72.0546L78.6123 72.8531Z" fill="white"/>
<path d="M81.4053 72.72H80.4441V65.0751H81.4053V72.72ZM81.6271 62.7683C81.6271 62.9951 81.5581 63.1774 81.4201 63.3155C81.2821 63.4436 81.1145 63.5077 80.9173 63.5077C80.7202 63.5077 80.5526 63.4436 80.4146 63.3155C80.2765 63.1774 80.2075 62.9951 80.2075 62.7683C80.2075 62.5416 80.2765 62.3642 80.4146 62.236C80.5526 62.098 80.7202 62.029 80.9173 62.029C81.1145 62.029 81.2821 62.098 81.4201 62.236C81.5581 62.3642 81.6271 62.5416 81.6271 62.7683Z" fill="white"/>
<path d="M87.1176 72.8827C86.5261 72.8827 86.0037 72.789 85.5502 72.6017C85.0967 72.4144 84.7172 72.1483 84.4116 71.8032C84.1158 71.4483 83.8891 71.0294 83.7314 70.5463C83.5736 70.0534 83.4948 69.5112 83.4948 68.9198C83.4948 68.3184 83.5736 67.7713 83.7314 67.2784C83.899 66.7855 84.1356 66.3616 84.4412 66.0067C84.7467 65.6518 85.1164 65.3807 85.5502 65.1934C85.9839 64.9963 86.4719 64.8977 87.0141 64.8977C87.4281 64.8977 87.8126 64.9322 88.1675 65.0012C88.5322 65.0702 88.8132 65.1589 89.0104 65.2674L88.759 66.0954C88.5618 65.9968 88.34 65.918 88.0936 65.8588C87.8471 65.7997 87.5169 65.7701 87.1028 65.7701C86.255 65.7701 85.6093 66.0461 85.1657 66.5982C84.732 67.1404 84.5151 67.9142 84.5151 68.9198C84.5151 69.3732 84.5644 69.7922 84.663 70.1767C84.7615 70.5513 84.9193 70.8766 85.1361 71.1526C85.3629 71.4188 85.6488 71.6307 85.9938 71.7884C86.3487 71.9363 86.7775 72.0103 87.2803 72.0103C87.6943 72.0103 88.0393 71.9659 88.3154 71.8772C88.6012 71.7786 88.8083 71.6948 88.9364 71.6258L89.1434 72.4539C88.966 72.5524 88.685 72.6461 88.3006 72.7348C87.926 72.8334 87.5317 72.8827 87.1176 72.8827Z" fill="white"/>
</svg>
