<svg
	title="Dermot Winters"
	width="156" height="71"
	viewBox="0 0 156 71"
	xmlns="http://www.w3.org/2000/svg"
>
	<path d="M1.20997 30V29.55L2.15497 29.19C3.11497 28.8 3.59497 28.035 3.59497 26.895V3.405C3.59497 2.205 3.11497 1.44 2.15497 1.11L1.20997 0.749998V0.299999H13.09C16.27 0.299999 19 0.899999 21.28 2.1C23.59 3.27 25.36 4.965 26.59 7.185C27.85 9.375 28.48 12.015 28.48 15.105C28.48 18.255 27.805 20.94 26.455 23.16C25.105 25.38 23.215 27.075 20.785 28.245C18.385 29.415 15.55 30 12.28 30H1.20997ZM10.345 29.1H12.28C14.44 29.1 16.18 28.68 17.5 27.84C18.82 26.97 19.78 25.53 20.38 23.52C21.01 21.48 21.325 18.69 21.325 15.15C21.325 11.61 21.01 8.835 20.38 6.825C19.78 4.785 18.835 3.345 17.545 2.505C16.255 1.635 14.56 1.2 12.46 1.2H10.345V29.1ZM41.5947 7.68C43.5447 7.68 45.2097 8.085 46.5897 8.895C47.9697 9.675 49.0197 10.755 49.7397 12.135C50.4897 13.485 50.8647 15.03 50.8647 16.77C50.8647 17.1 50.8497 17.445 50.8197 17.805C50.7897 18.135 50.7297 18.435 50.6397 18.705H37.2297C37.2597 21.945 37.8297 24.285 38.9397 25.725C40.0797 27.135 41.7597 27.84 43.9797 27.84C45.4797 27.84 46.6947 27.6 47.6247 27.12C48.5547 26.64 49.4247 25.935 50.2347 25.005L50.6847 25.41C49.7547 27.06 48.5097 28.35 46.9497 29.28C45.4197 30.21 43.5747 30.675 41.4147 30.675C39.2847 30.675 37.3947 30.225 35.7447 29.325C34.0947 28.395 32.8047 27.075 31.8747 25.365C30.9447 23.655 30.4797 21.615 30.4797 19.245C30.4797 16.785 31.0197 14.7 32.0997 12.99C33.1797 11.25 34.5597 9.93 36.2397 9.03C37.9497 8.13 39.7347 7.68 41.5947 7.68ZM41.4597 8.58C40.5897 8.58 39.8397 8.85 39.2097 9.39C38.6097 9.9 38.1297 10.83 37.7697 12.18C37.4397 13.5 37.2597 15.375 37.2297 17.805H44.9247C45.2247 14.535 45.1047 12.18 44.5647 10.74C44.0247 9.3 42.9897 8.58 41.4597 8.58ZM53.1073 30V29.55L53.7823 29.37C54.3823 29.19 54.7873 28.92 54.9973 28.56C55.2373 28.2 55.3573 27.735 55.3573 27.165V13.08C55.3573 12.42 55.2373 11.94 54.9973 11.64C54.7873 11.31 54.3823 11.085 53.7823 10.965L53.1073 10.785V10.335L60.8473 7.725L61.2973 8.175L61.7023 12.045V12.405C62.1223 11.565 62.6623 10.8 63.3223 10.11C64.0123 9.39 64.7623 8.805 65.5723 8.355C66.4123 7.905 67.2373 7.68 68.0473 7.68C69.1873 7.68 70.0573 7.995 70.6573 8.625C71.2573 9.255 71.5573 10.05 71.5573 11.01C71.5573 12.03 71.2573 12.825 70.6573 13.395C70.0873 13.935 69.3973 14.205 68.5873 14.205C67.3273 14.205 66.2173 13.575 65.2573 12.315L65.1673 12.225C64.8673 11.805 64.5223 11.58 64.1323 11.55C63.7423 11.49 63.3823 11.67 63.0523 12.09C62.7523 12.36 62.4973 12.69 62.2873 13.08C62.1073 13.44 61.9273 13.86 61.7473 14.34V26.895C61.7473 28.095 62.2723 28.845 63.3223 29.145L64.7623 29.55V30H53.1073ZM72.9706 30V29.55L73.6006 29.37C74.1706 29.22 74.5606 28.965 74.7706 28.605C75.0106 28.245 75.1456 27.765 75.1756 27.165V13.08C75.1756 12.42 75.0706 11.94 74.8606 11.64C74.6506 11.31 74.2456 11.085 73.6456 10.965L72.9706 10.785V10.335L80.6656 7.725L81.1156 8.175L81.4756 11.235C82.4656 10.245 83.5906 9.405 84.8506 8.715C86.1406 8.025 87.4756 7.68 88.8556 7.68C90.2956 7.68 91.4506 7.98 92.3206 8.58C93.1906 9.15 93.8506 10.05 94.3006 11.28C95.4706 10.17 96.7306 9.3 98.0806 8.67C99.4606 8.01 100.796 7.68 102.086 7.68C104.216 7.68 105.776 8.19 106.766 9.21C107.786 10.23 108.296 11.835 108.296 14.025V27.21C108.296 28.38 108.836 29.115 109.916 29.415L110.411 29.55V30H100.016V29.55L100.466 29.415C101.036 29.235 101.426 28.965 101.636 28.605C101.876 28.245 101.996 27.765 101.996 27.165V13.395C101.996 12.135 101.771 11.28 101.321 10.83C100.871 10.35 100.151 10.11 99.1606 10.11C98.3806 10.11 97.6156 10.29 96.8656 10.65C96.1456 10.98 95.3806 11.49 94.5706 12.18C94.7206 12.66 94.8106 13.185 94.8406 13.755C94.9006 14.325 94.9306 14.925 94.9306 15.555V27.21C94.9606 28.38 95.5006 29.115 96.5506 29.415L96.9556 29.55V30H86.5156V29.55L87.1456 29.37C87.7156 29.19 88.1056 28.935 88.3156 28.605C88.5556 28.245 88.6756 27.765 88.6756 27.165V13.44C88.6756 12.24 88.4506 11.385 88.0006 10.875C87.5806 10.365 86.8456 10.11 85.7956 10.11C85.1056 10.11 84.4156 10.29 83.7256 10.65C83.0356 10.98 82.3156 11.475 81.5656 12.135V27.21C81.5656 28.38 82.0906 29.115 83.1406 29.415L83.5456 29.55V30H72.9706ZM123.555 30.675C121.275 30.675 119.295 30.21 117.615 29.28C115.935 28.32 114.63 26.97 113.7 25.23C112.8 23.49 112.35 21.45 112.35 19.11C112.35 16.77 112.83 14.745 113.79 13.035C114.78 11.325 116.115 10.005 117.795 9.075C119.505 8.145 121.425 7.68 123.555 7.68C125.685 7.68 127.59 8.145 129.27 9.075C130.95 9.975 132.27 11.28 133.23 12.99C134.22 14.7 134.715 16.74 134.715 19.11C134.715 21.48 134.25 23.535 133.32 25.275C132.42 26.985 131.13 28.32 129.45 29.28C127.8 30.21 125.835 30.675 123.555 30.675ZM123.555 29.775C124.605 29.775 125.445 29.475 126.075 28.875C126.705 28.275 127.155 27.21 127.425 25.68C127.725 24.15 127.875 21.99 127.875 19.2C127.875 16.38 127.725 14.205 127.425 12.675C127.155 11.145 126.705 10.08 126.075 9.48C125.445 8.88 124.605 8.58 123.555 8.58C122.505 8.58 121.65 8.88 120.99 9.48C120.36 10.08 119.895 11.145 119.595 12.675C119.325 14.205 119.19 16.38 119.19 19.2C119.19 21.99 119.325 24.15 119.595 25.68C119.895 27.21 120.36 28.275 120.99 28.875C121.65 29.475 122.505 29.775 123.555 29.775ZM145.065 30.675C143.145 30.675 141.645 30.195 140.565 29.235C139.515 28.275 138.99 26.745 138.99 24.645V9.255H135.885V8.805L136.965 8.625C137.895 8.415 138.69 8.115 139.35 7.725C140.04 7.335 140.715 6.81 141.375 6.15L145.065 2.055H145.515L145.38 8.355H150.42V9.255H145.335V25.455C145.335 26.505 145.56 27.3 146.01 27.84C146.49 28.38 147.09 28.65 147.81 28.65C148.44 28.65 148.995 28.5 149.475 28.2C149.955 27.87 150.435 27.435 150.915 26.895L151.365 27.345C150.765 28.365 149.94 29.175 148.89 29.775C147.84 30.375 146.565 30.675 145.065 30.675ZM10.84 70.135L2.87497 43.36C2.66497 42.67 2.43997 42.175 2.19997 41.875C1.95997 41.545 1.53997 41.245 0.939971 40.975L0.399971 40.75V40.3H12.325V40.75L11.38 41.11C10.69 41.38 10.225 41.71 9.98497 42.1C9.74497 42.49 9.72997 43.03 9.93997 43.72L14.845 62.44L20.155 46.735L19.12 43.54C18.91 42.91 18.715 42.43 18.535 42.1C18.355 41.77 18.055 41.5 17.635 41.29L16.645 40.75V40.3H27.94V40.75L26.545 41.29C25.945 41.5 25.6 41.815 25.51 42.235C25.45 42.625 25.525 43.135 25.735 43.765L31.45 62.89L36.85 44.125C37.06 43.405 37.135 42.775 37.075 42.235C37.015 41.695 36.64 41.305 35.95 41.065L35.005 40.75V40.3H41.26V40.75L40.09 41.2C39.49 41.41 39.07 41.74 38.83 42.19C38.59 42.64 38.38 43.195 38.2 43.855L30.73 70.135H27.625L20.875 48.985L13.945 70.135H10.84ZM46.5542 45.34C45.5342 45.34 44.6642 45.025 43.9442 44.395C43.2542 43.735 42.9092 42.91 42.9092 41.92C42.9092 40.9 43.2542 40.075 43.9442 39.445C44.6642 38.815 45.5342 38.5 46.5542 38.5C47.5742 38.5 48.4292 38.815 49.1192 39.445C49.8092 40.075 50.1542 40.9 50.1542 41.92C50.1542 42.91 49.8092 43.735 49.1192 44.395C48.4292 45.025 47.5742 45.34 46.5542 45.34ZM41.2442 70V69.55L41.8742 69.37C42.4742 69.19 42.8792 68.92 43.0892 68.56C43.3292 68.2 43.4492 67.72 43.4492 67.12V53.035C43.4492 52.405 43.3292 51.94 43.0892 51.64C42.8792 51.31 42.4742 51.085 41.8742 50.965L41.2442 50.83V50.38L49.4792 47.725L49.9292 48.175L49.7942 54.565V67.165C49.7942 67.765 49.8992 68.245 50.1092 68.605C50.3492 68.965 50.7542 69.235 51.3242 69.415L51.7742 69.55V70H41.2442ZM53.7665 70V69.55L54.3965 69.37C55.4465 69.07 55.9715 68.335 55.9715 67.165V53.08C55.9715 52.42 55.8665 51.94 55.6565 51.64C55.4465 51.31 55.0415 51.085 54.4415 50.965L53.7665 50.785V50.335L61.4615 47.725L61.9115 48.175L62.2715 50.875C63.3215 49.945 64.5065 49.18 65.8265 48.58C67.1465 47.98 68.4515 47.68 69.7415 47.68C71.7215 47.68 73.2365 48.22 74.2865 49.3C75.3665 50.38 75.9065 52.03 75.9065 54.25V67.21C75.9065 68.38 76.4765 69.115 77.6165 69.415L78.0215 69.55V70H67.4015V69.55L67.9865 69.37C69.0365 69.04 69.5615 68.305 69.5615 67.165V52.81C69.5615 50.89 68.6015 49.93 66.6815 49.93C65.3615 49.93 63.9215 50.59 62.3615 51.91V67.21C62.3615 68.38 62.8865 69.115 63.9365 69.415L64.3415 69.55V70H53.7665ZM88.1124 70.675C86.1924 70.675 84.6924 70.195 83.6124 69.235C82.5624 68.275 82.0374 66.745 82.0374 64.645V49.255H78.9324V48.805L80.0124 48.625C80.9424 48.415 81.7374 48.115 82.3974 47.725C83.0874 47.335 83.7624 46.81 84.4224 46.15L88.1124 42.055H88.5624L88.4274 48.355H93.4674V49.255H88.3824V65.455C88.3824 66.505 88.6074 67.3 89.0574 67.84C89.5374 68.38 90.1374 68.65 90.8574 68.65C91.4874 68.65 92.0424 68.5 92.5224 68.2C93.0024 67.87 93.4824 67.435 93.9624 66.895L94.4124 67.345C93.8124 68.365 92.9874 69.175 91.9374 69.775C90.8874 70.375 89.6124 70.675 88.1124 70.675ZM106.985 47.68C108.935 47.68 110.6 48.085 111.98 48.895C113.36 49.675 114.41 50.755 115.13 52.135C115.88 53.485 116.255 55.03 116.255 56.77C116.255 57.1 116.24 57.445 116.21 57.805C116.18 58.135 116.12 58.435 116.03 58.705H102.62C102.65 61.945 103.22 64.285 104.33 65.725C105.47 67.135 107.15 67.84 109.37 67.84C110.87 67.84 112.085 67.6 113.015 67.12C113.945 66.64 114.815 65.935 115.625 65.005L116.075 65.41C115.145 67.06 113.9 68.35 112.34 69.28C110.81 70.21 108.965 70.675 106.805 70.675C104.675 70.675 102.785 70.225 101.135 69.325C99.4853 68.395 98.1953 67.075 97.2653 65.365C96.3353 63.655 95.8703 61.615 95.8703 59.245C95.8703 56.785 96.4103 54.7 97.4903 52.99C98.5703 51.25 99.9503 49.93 101.63 49.03C103.34 48.13 105.125 47.68 106.985 47.68ZM106.85 48.58C105.98 48.58 105.23 48.85 104.6 49.39C104 49.9 103.52 50.83 103.16 52.18C102.83 53.5 102.65 55.375 102.62 57.805H110.315C110.615 54.535 110.495 52.18 109.955 50.74C109.415 49.3 108.38 48.58 106.85 48.58ZM118.498 70V69.55L119.173 69.37C119.773 69.19 120.178 68.92 120.388 68.56C120.628 68.2 120.748 67.735 120.748 67.165V53.08C120.748 52.42 120.628 51.94 120.388 51.64C120.178 51.31 119.773 51.085 119.173 50.965L118.498 50.785V50.335L126.238 47.725L126.688 48.175L127.093 52.045V52.405C127.513 51.565 128.053 50.8 128.713 50.11C129.403 49.39 130.153 48.805 130.963 48.355C131.803 47.905 132.628 47.68 133.438 47.68C134.578 47.68 135.448 47.995 136.048 48.625C136.648 49.255 136.948 50.05 136.948 51.01C136.948 52.03 136.648 52.825 136.048 53.395C135.478 53.935 134.788 54.205 133.978 54.205C132.718 54.205 131.608 53.575 130.648 52.315L130.558 52.225C130.258 51.805 129.913 51.58 129.523 51.55C129.133 51.49 128.773 51.67 128.443 52.09C128.143 52.36 127.888 52.69 127.678 53.08C127.498 53.44 127.318 53.86 127.138 54.34V66.895C127.138 68.095 127.663 68.845 128.713 69.145L130.153 69.55V70H118.498ZM145.707 70.675C144.237 70.675 142.917 70.495 141.747 70.135C140.577 69.805 139.497 69.385 138.507 68.875L138.552 63.52H139.002L140.532 66.22C141.192 67.42 141.912 68.32 142.692 68.92C143.502 69.49 144.522 69.775 145.752 69.775C147.192 69.775 148.347 69.46 149.217 68.83C150.117 68.17 150.567 67.3 150.567 66.22C150.567 65.23 150.252 64.42 149.622 63.79C148.992 63.16 147.822 62.59 146.112 62.08L144.222 61.495C142.392 60.955 140.952 60.115 139.902 58.975C138.852 57.835 138.327 56.44 138.327 54.79C138.327 52.81 139.107 51.13 140.667 49.75C142.227 48.37 144.462 47.68 147.372 47.68C148.542 47.68 149.637 47.815 150.657 48.085C151.707 48.325 152.712 48.7 153.672 49.21L153.402 54.07H152.952L151.377 51.28C150.807 50.29 150.237 49.6 149.667 49.21C149.127 48.79 148.302 48.58 147.192 48.58C146.172 48.58 145.212 48.865 144.312 49.435C143.412 50.005 142.962 50.815 142.962 51.865C142.962 52.885 143.337 53.695 144.087 54.295C144.867 54.895 146.007 55.45 147.507 55.96L149.532 56.545C151.692 57.205 153.237 58.12 154.167 59.29C155.097 60.43 155.562 61.81 155.562 63.43C155.562 65.62 154.692 67.375 152.952 68.695C151.242 70.015 148.827 70.675 145.707 70.675Z" fill="white"/>
</svg>
